<?xml version="1.0" encoding="UTF-8"?>
<svg width="155.74px" height="155.74px" fill="#b39ddb" viewBox="-20 -20 175.74 175.74" xmlns="http://www.w3.org/2000/svg" xmlnsXlink="http://www.w3.org/1999/xlink">
<defs>
<mask id="a">
<rect width="100%" height="100%" fill="#fff"/>
<g transform="translate(70,40) rotate(50)">
<g transform="translate(47.746)">
<g fill="#000">
<path d="m-10.7 21.3 0.1-6.1 1.6-2.4v-1l-3-3h-1l-2.4 1.6h-6.7l-1-2.4 4.4-4.6 2.9-0.5 0.9-0.7 0.2-3.9-0.2-0.7-0.9-0.7-2.9-0.5-4.4-4.6 1-2.4 6.3-0.1 2.4 1.7 1.2 0.1 3-2.6 0.3-0.7-0.1-1.2-1.7-2.3 0.1-6.3 2.4-1 4.6 4.4 0.5 2.9 0.7 0.9 3.9 0.2 0.7-0.2 0.7-0.9 0.5-2.9 4.6-4.4 2.4 1 0.2 6.3-1.7 2.4-0.1 1.2 2.6 3 0.7 0.3 1.2-0.1 2.4-1.7 6.3 0.1 1 2.4-4.4 4.6-2.8 0.5-0.9 0.7-0.2 3.9 0.2 0.7 0.9 0.7 2.9 0.5 4.4 4.6-1 2.4-6.5 0.1-2.4-1.7-1.2-0.1-3 2.6-0.3 0.7 0.1 1.2 1.7 2.4-0.1 6.3-2.4 1-4.6-4.4-0.5-2.9-0.7-0.9-3.9-0.2-0.7 0.2-0.7 0.9-0.5 2.9-4.5 4.4-2.4-1-0.2-0.7z"></path>
</g>
</g>
<g>
<g fill="#000">
<path d="m27.8-14-2.7 3.6-3.5 2.3-0.2 0.4 1 3.7 0.4 0.3 7.1 1.3 1.8 1.1v2.8l-4.4 2.1-4.8 0.4-0.3 0.3-0.9 3.3 0.1 0.4 4 2.8 2.8 4-1.4 2.4-4.8-0.5-4.4-2-0.4 0.2-2.4 2.4-0.2 0.4 2 4.4 0.4 4.8-2.4 1.4-4-2.8-2.8-4-0.4-0.1-3.3 0.9-0.3 0.3-0.4 4.8-2.1 4.4h-2.8l-2.1-4.4-0.4-4.8-0.3-0.3-3.3-0.9-0.4 0.1-2.8 4-4 2.8-2.4-1.4 0.4-4.8 2-4.4-0.2-0.4-2.4-2.4-0.4-0.2-4.4 2-4.8 0.4-1.4-2.4 2.8-4 4-2.8 0.1-0.4-0.9-3.3-0.3-0.3-4.8-0.4-4.4-2.1v-2.8l4.4-2.1 4.8-0.4 0.3-0.3 0.9-3.3-0.1-0.4-4-2.8-2.8-4 1.4-2.4 4.8 0.4 4.4 2 0.4-0.2 2.4-2.4 0.2-0.4-2-4.4-0.4-4.8 2.4-1.4 4 2.8 2.8 4 0.4 0.1 3.3-0.9 0.3-0.3 0.4-4.8 2.1-4.4h2.8l2.1 4.4 0.4 4.8 0.3 0.3 3.3 0.9 0.4-0.1 2.8-4 4-2.8 2.4 1.4-0.3 4.9-2 4.4 0.2 0.4 2.4 2.4 0.4 0.2 4.4-2 4.8-0.4 1.4 2.4-0.5 0.6z"></path>
</g>
</g>
</g>
</mask>
</defs>
<path d="m52.781 155.74h86.949s-25.232-20.279-24.701-42.513c0.317-12.388 24.701-28.158 24.58-62.58-0.076-17.311-16.865-46.088-45.371-49.675-28.514-3.591-49.852 2.685-59.176 20.264-9.335 17.57-10.042 32.999-9.325 35.861 0.726 2.876 3.769 8.255 3.769 8.255s-14.346 22.054-13.457 25.637c0.908 3.596 10.748 5.527 10.748 5.527s0.892 2.497-0.906 7.335c-1.795 4.846 3.338 10.468 4.88 12.43 1.519 1.954-2.158 8.062-0.908 11.476 1.253 3.398 7.176 7.523 13.986 6.632 6.819-0.902 15.566-2.504 18.604-3.054 6.859 16.145-9.672 24.405-9.672 24.405z" mask="url(#a)"/>
</svg>
